<?xml version="1.0" encoding="UTF-8" standalone="no"?>
<svg
   xmlns:dc="http://purl.org/dc/elements/1.1/"
   xmlns:cc="http://creativecommons.org/ns#"
   xmlns:rdf="http://www.w3.org/1999/02/22-rdf-syntax-ns#"
   xmlns:svg="http://www.w3.org/2000/svg"
   xmlns="http://www.w3.org/2000/svg"
   id="svg8"
   version="1.1"
   viewBox="0 0 166.76192 77.177948"
   height="77.177948mm"
   width="166.76192mm">
  <defs
     id="defs2" />
  <metadata
     id="metadata5">
    <rdf:RDF>
      <cc:Work
         rdf:about="">
        <dc:format>image/svg+xml</dc:format>
        <dc:type
           rdf:resource="http://purl.org/dc/dcmitype/StillImage" />
        <dc:title></dc:title>
      </cc:Work>
    </rdf:RDF>
  </metadata>
  <g
     transform="translate(-24.218086,-107.5293)"
     style="display:none"
     id="layer1">
    <rect
       y="-2.3571427"
       x="-0.75595242"
       height="300.86905"
       width="213.93451"
       id="rect815"
       style="opacity:1;fill:#000000;fill-opacity:1;fill-rule:nonzero;stroke:none;stroke-width:1.46499991;stroke-linecap:round;stroke-linejoin:round;stroke-miterlimit:4;stroke-dasharray:none;stroke-dashoffset:0;stroke-opacity:1;paint-order:markers fill stroke" />
  </g>
  <g
     transform="translate(-24.218086,-107.5293)"
     id="layer2">
    <flowRoot
       transform="matrix(0.26458333,0,0,0.26458333,-1.889881,13.611752)"
       style="font-style:normal;font-variant:normal;font-weight:normal;font-stretch:normal;font-size:40px;line-height:1.25;font-family:'Tw Cen MT Condensed Extra Bold';-inkscape-font-specification:'Tw Cen MT Condensed Extra Bold, ';letter-spacing:0px;word-spacing:0px;fill:#000000;fill-opacity:1;stroke:none"
       id="flowRoot818"
       xml:space="preserve"><flowRegion
         id="flowRegion820"><rect
           y="562.51971"
           x="74.285713"
           height="177.14285"
           width="680"
           id="rect822" /></flowRegion><flowPara
         style="font-style:normal;font-variant:normal;font-weight:normal;font-stretch:normal;font-size:96px;font-family:Consolas;-inkscape-font-specification:Consolas;fill:#ffffff;fill-opacity:1"
         id="flowPara824"><flowSpan
   id="flowSpan826"
   style="text-align:center;letter-spacing:10px;text-anchor:middle">SPACE </flowSpan>TUNES</flowPara></flowRoot>    <path
       transform="matrix(0.35612236,-0.0473935,0.0473935,0.35612236,25.339961,119.56943)"
       d="M 54.428569,75.505951 C 41.968464,84.2617 39.37182,83.808317 30.61607,71.348213 21.860321,58.888108 22.313703,56.291463 34.773808,47.535714 c 12.460105,-8.75575 15.05675,-8.302367 23.812499,4.157738 8.75575,12.460104 8.302367,15.056749 -4.157738,23.812499 z"
       id="path1048"
       style="opacity:1;vector-effect:none;fill:#ff9292;fill-opacity:1;fill-rule:evenodd;stroke:none;stroke-width:0.57994705;stroke-linecap:butt;stroke-linejoin:miter;stroke-miterlimit:4;stroke-dasharray:none;stroke-dashoffset:0;stroke-opacity:1" />
    <path
       style="opacity:1;vector-effect:none;fill:#fec6a7;fill-opacity:1;fill-rule:evenodd;stroke:none;stroke-width:0.57994705;stroke-linecap:butt;stroke-linejoin:miter;stroke-miterlimit:4;stroke-dasharray:none;stroke-dashoffset:0;stroke-opacity:1"
       id="path1050"
       d="M 54.428569,75.505951 C 41.968464,84.2617 39.37182,83.808317 30.61607,71.348213 21.860321,58.888108 22.313703,56.291463 34.773808,47.535714 c 12.460105,-8.75575 15.05675,-8.302367 23.812499,4.157738 8.75575,12.460104 8.302367,15.056749 -4.157738,23.812499 z"
       transform="matrix(0.35612236,-0.0473935,0.0473935,0.35612236,53.081603,96.975722)" />
    <path
       transform="matrix(0.35612236,-0.0473935,0.0473935,0.35612236,49.363651,127.86332)"
       d="M 54.428569,75.505951 C 41.968464,84.2617 39.37182,83.808317 30.61607,71.348213 21.860321,58.888108 22.313703,56.291463 34.773808,47.535714 c 12.460105,-8.75575 15.05675,-8.302367 23.812499,4.157738 8.75575,12.460104 8.302367,15.056749 -4.157738,23.812499 z"
       id="path1052"
       style="opacity:1;vector-effect:none;fill:#feeba7;fill-opacity:1;fill-rule:evenodd;stroke:none;stroke-width:0.57994705;stroke-linecap:butt;stroke-linejoin:miter;stroke-miterlimit:4;stroke-dasharray:none;stroke-dashoffset:0;stroke-opacity:1" />
    <path
       style="opacity:1;vector-effect:none;fill:#affba7;fill-opacity:1;fill-rule:evenodd;stroke:none;stroke-width:0.57994705;stroke-linecap:butt;stroke-linejoin:miter;stroke-miterlimit:4;stroke-dasharray:none;stroke-dashoffset:0;stroke-opacity:1"
       id="path1054"
       d="M 54.428569,75.505951 C 41.968464,84.2617 39.37182,83.808317 30.61607,71.348213 21.860321,58.888108 22.313703,56.291463 34.773808,47.535714 c 12.460105,-8.75575 15.05675,-8.302367 23.812499,4.157738 8.75575,12.460104 8.302367,15.056749 -4.157738,23.812499 z"
       transform="matrix(0.35612236,-0.0473935,0.0473935,0.35612236,83.397212,111.27554)" />
    <path
       transform="matrix(0.35612236,-0.0473935,0.0473935,0.35612236,110.56686,125.28935)"
       d="M 54.428569,75.505951 C 41.968464,84.2617 39.37182,83.808317 30.61607,71.348213 21.860321,58.888108 22.313703,56.291463 34.773808,47.535714 c 12.460105,-8.75575 15.05675,-8.302367 23.812499,4.157738 8.75575,12.460104 8.302367,15.056749 -4.157738,23.812499 z"
       id="path1056"
       style="opacity:1;vector-effect:none;fill:#a7d2fe;fill-opacity:1;fill-rule:evenodd;stroke:none;stroke-width:0.57994705;stroke-linecap:butt;stroke-linejoin:miter;stroke-miterlimit:4;stroke-dasharray:none;stroke-dashoffset:0;stroke-opacity:1" />
    <path
       style="opacity:1;vector-effect:none;fill:#daa7fe;fill-opacity:1;fill-rule:evenodd;stroke:none;stroke-width:0.57994705;stroke-linecap:butt;stroke-linejoin:miter;stroke-miterlimit:4;stroke-dasharray:none;stroke-dashoffset:0;stroke-opacity:1"
       id="path1058"
       d="M 54.428569,75.505951 C 41.968464,84.2617 39.37182,83.808317 30.61607,71.348213 21.860321,58.888108 22.313703,56.291463 34.773808,47.535714 c 12.460105,-8.75575 15.05675,-8.302367 23.812499,4.157738 8.75575,12.460104 8.302367,15.056749 -4.157738,23.812499 z"
       transform="matrix(0.35612236,-0.0473935,0.0473935,0.35612236,134.87655,94.973743)" />
    <path
       transform="matrix(0.35612236,-0.0473935,0.0473935,0.35612236,143.74243,124.71736)"
       d="M 54.428569,75.505951 C 41.968464,84.2617 39.37182,83.808317 30.61607,71.348213 21.860321,58.888108 22.313703,56.291463 34.773808,47.535714 c 12.460105,-8.75575 15.05675,-8.302367 23.812499,4.157738 8.75575,12.460104 8.302367,15.056749 -4.157738,23.812499 z"
       id="path1060"
       style="opacity:1;vector-effect:none;fill:#fea7d6;fill-opacity:1;fill-rule:evenodd;stroke:none;stroke-width:0.57994705;stroke-linecap:butt;stroke-linejoin:miter;stroke-miterlimit:4;stroke-dasharray:none;stroke-dashoffset:0;stroke-opacity:1" />
    <path
       d="m 46.718908,139.53534 a 2.5390604,2.5390604 0 0 1 -2.538351,2.53906 2.5390604,2.5390604 0 0 1 -2.539769,-2.53764 2.5390604,2.5390604 0 0 1 2.536933,-2.54048 2.5390604,2.5390604 0 0 1 2.541185,2.53622"
       id="path1062"
       style="opacity:1;fill:#ffffff;fill-opacity:0.76862745;fill-rule:nonzero;stroke:none;stroke-width:1.46499991;stroke-linecap:round;stroke-linejoin:round;stroke-miterlimit:4;stroke-dasharray:none;stroke-dashoffset:0;stroke-opacity:1;paint-order:markers fill stroke" />
    <path
       style="opacity:1;fill:#ffffff;fill-opacity:0.76862745;fill-rule:nonzero;stroke:none;stroke-width:1.46499991;stroke-linecap:round;stroke-linejoin:round;stroke-miterlimit:4;stroke-dasharray:none;stroke-dashoffset:0;stroke-opacity:1;paint-order:markers fill stroke"
       id="path1064"
       d="m 70.625906,147.94531 a 2.5390604,2.5390604 0 0 1 -2.538352,2.53906 2.5390604,2.5390604 0 0 1 -2.539769,-2.53764 2.5390604,2.5390604 0 0 1 2.536933,-2.54048 2.5390604,2.5390604 0 0 1 2.541186,2.53623" />
    <path
       d="m 74.31117,116.85677 a 2.5390604,2.5390604 0 0 1 -2.538351,2.53906 2.5390604,2.5390604 0 0 1 -2.539769,-2.53764 2.5390604,2.5390604 0 0 1 2.536933,-2.54048 2.5390604,2.5390604 0 0 1 2.541186,2.53623"
       id="path1066"
       style="opacity:1;fill:#ffffff;fill-opacity:0.76862745;fill-rule:nonzero;stroke:none;stroke-width:1.46499991;stroke-linecap:round;stroke-linejoin:round;stroke-miterlimit:4;stroke-dasharray:none;stroke-dashoffset:0;stroke-opacity:1;paint-order:markers fill stroke" />
    <path
       style="opacity:1;fill:#ffffff;fill-opacity:0.76862745;fill-rule:nonzero;stroke:none;stroke-width:1.46499991;stroke-linecap:round;stroke-linejoin:round;stroke-miterlimit:4;stroke-dasharray:none;stroke-dashoffset:0;stroke-opacity:1;paint-order:markers fill stroke"
       id="path1068"
       d="m 104.73826,131.40886 a 2.5390604,2.5390604 0 0 1 -2.53835,2.53906 2.5390604,2.5390604 0 0 1 -2.539766,-2.53764 2.5390604,2.5390604 0 0 1 2.536936,-2.54048 2.5390604,2.5390604 0 0 1 2.54118,2.53622" />
    <path
       d="m 131.85806,145.39398 a 2.5390604,2.5390604 0 0 1 -2.53835,2.53906 2.5390604,2.5390604 0 0 1 -2.53977,-2.53764 2.5390604,2.5390604 0 0 1 2.53693,-2.54048 2.5390604,2.5390604 0 0 1 2.54119,2.53623"
       id="path1070"
       style="opacity:1;fill:#ffffff;fill-opacity:0.76862745;fill-rule:nonzero;stroke:none;stroke-width:1.46499991;stroke-linecap:round;stroke-linejoin:round;stroke-miterlimit:4;stroke-dasharray:none;stroke-dashoffset:0;stroke-opacity:1;paint-order:markers fill stroke" />
    <path
       style="opacity:1;fill:#ffffff;fill-opacity:0.76862745;fill-rule:nonzero;stroke:none;stroke-width:1.46499991;stroke-linecap:round;stroke-linejoin:round;stroke-miterlimit:4;stroke-dasharray:none;stroke-dashoffset:0;stroke-opacity:1;paint-order:markers fill stroke"
       id="path1072"
       d="m 165.21446,144.92151 a 2.5390604,2.5390604 0 0 1 -2.53835,2.53906 2.5390604,2.5390604 0 0 1 -2.53977,-2.53764 2.5390604,2.5390604 0 0 1 2.53693,-2.54048 2.5390604,2.5390604 0 0 1 2.54119,2.53622" />
    <path
       d="m 156.14303,114.8724 a 2.5390604,2.5390604 0 0 1 -2.53835,2.53906 2.5390604,2.5390604 0 0 1 -2.53977,-2.53764 2.5390604,2.5390604 0 0 1 2.53694,-2.54048 2.5390604,2.5390604 0 0 1 2.54118,2.53622"
       id="path1074"
       style="opacity:1;fill:#ffffff;fill-opacity:0.76862745;fill-rule:nonzero;stroke:none;stroke-width:1.46499991;stroke-linecap:round;stroke-linejoin:round;stroke-miterlimit:4;stroke-dasharray:none;stroke-dashoffset:0;stroke-opacity:1;paint-order:markers fill stroke" />
    <path
       id="path1076"
       d="m 71.673735,116.61086 -27.521392,23.08017 23.836124,8.57534 34.206843,-17.00893 26.93081,14.22135 24.19047,-30.66331"
       style="fill:none;fill-opacity:1;stroke:#ffffff;stroke-width:1.36500001;stroke-linecap:round;stroke-linejoin:round;stroke-miterlimit:4;stroke-dasharray:none;stroke-opacity:0.77647059" />
    <path
       id="path1078"
       d="m 129.12612,145.47879 33.45089,-0.47247"
       style="fill:none;stroke:#ffffff;stroke-width:1.36500001;stroke-linecap:round;stroke-linejoin:miter;stroke-miterlimit:4;stroke-dasharray:none;stroke-opacity:1" />
  </g>
</svg>
